<svg xmlns="http://www.w3.org/2000/svg" viewBox="0 0 60 60" role="img" aria-label="Washington State University">
  <g transform="translate(4 2) scale(0.42)">
    <path fill="#981E32" d="m65.807 0.0039062-5.2734 16.18c-0.058 8e-3 -0.11302 0.02225-0.16602 0.03125-3.205 1.057-6.1283 3.2588-8.2363 6.2578-2.708 3.832-5.4522 10.82-3.1562 22.33 0.389 1.916 1.031 4.6903 1.707 7.6133 1.355 5.842 2.9085 12.468 3.4375 16.738 1.226 9.742 0.11114 16.021-3.5059 19.791-2.959 3.048-7.4851 4.2659-13.869 3.7109l-1.5977-0.13281 0.13477-1.5938c0.112-1.165 0.14844-2.3066 0.14844-3.3906 0-2.174-0.16605-4.1495-0.37305-5.7695-3.563 5.842-9.9464 14.092-18.107 18.855 13.873 0.336 27.304 2.7745 33.303 3.6035 0.586 0.07 1.1773 0.13392 1.7773 0.16992 0.155 0 0.30198 0.0234 0.45898 0.0234 0.045-1e-5 0.10344-3.3e-4 0.14844 0.0137a26.51 26.51 0 0 0 3.9805-0.19727c0.04-0.01 0.07514-0.01 0.11914-0.01a7.09 7.09 0 0 1 0.50781-0.0879c7.708-1.313 14.409-7.0346 12.609-20.268-2.136-15.727-4.8792-25.749-5.5742-33.301-0.855-9.19 7.1148-23.436 21.301-17.137 0 0 1.9648 1.6696 4.5488 7.6816 0-1e-6 1.0015-3.4187-0.43945-9.7227 0.591-1.742 0.83222-3.5873 0.82422-5.4043l15.443-0.65234 0.01-1.6836-15.678-0.50586c-0.049-0.283-0.09248-0.5637-0.14648-0.8457l15.072-3.0078-0.25976-1.666-15.533 1.9297c-0.089-0.309-0.20245-0.61425-0.31445-0.90625l14.209-5.5098-0.55079-1.6016-14.863 4.5703c-0.872-1.477-1.8662-2.5392-2.7832-2.9062-5.667 0.416-10.779 0.88624-15.494 1.4902l2.9822-13.881h-1.6387l-4.5527 14.334c-0.841 0.129-1.6732 0.2613-2.4922 0.4043l3.5391-15.549zm-14.732 18.684c-9.039 3.035-16.613 7.7623-24.43 15.57l5.498 6.375 2.248-2.1055c2.13 7.92 0.59961 15.213 0.59961 15.213-2.893-4.405-6.3047-7.9766-6.3047-7.9766l1.4902-2.5078-4.9551-5.7578-0.57226-0.64453c-6.092 8.367-8.0625 15.211-8.0625 15.211l4.3184 3.959 2.5176 2.2793 0.8457-2.4277c4.65 8.698 0.4043 16.826 0.4043 16.826-0.761-2.963-3.8242-7.3457-3.8242-7.3457l1.209-3.9883-6.4336-5.8184c-6.688 20.892-15.621 27.662-15.621 27.662 0 0 9.6628-1.7428 15.049-3.5508 0 0-0.14751 11.012-6.6875 21.053 8e-3 -4e-3 0.017578-4e-3 0.017578-4e-3 13.053-2.9729 23.058-18.207 25.99-24.322l1.8672-3.8711 1.123 4.1445c0.055 0.224 1.2715 4.799 1.2715 10.834 0 0.67-0.01673 1.3558-0.05273 2.0508 4.503 0.17 7.7178-0.74332 9.7188-2.8203 2.87-2.964 3.7301-8.5819 2.6641-17.17-0.529-4.108-2.0475-10.643-3.3945-16.414-0.69-2.95-1.3384-5.7399-1.7324-7.7129-2.516-12.615 0.60892-20.45 3.6699-24.797a20.85 20.85 0 0 1 1.5684-1.9434zm18.775 7.9961c2.2307 0.05977 4.3218 0.42516 5.7168 1.1602 1.356 0.717 0.2912 1.0481-0.9668 0.95508-4.974-0.381-10.274 1.2965-13.389 3.4805l-2e-3 2e-3c-2.426 1.696-4.0864 4.1103-5.0664 5.8203-0.112-0.144-0.94515-6.1119 3.9648-9.4609 1.9175-1.3069 6.0243-2.0566 9.7422-1.957zm23.551 27.596s3.2674 17.809-8.3086 18.416c-11.17 0.583-16.43-16.215-16.43-16.215s2.7004 32.823 18.359 30.66c17.629-2.43 6.3789-32.861 6.3789-32.861zm-20.488 39.523c-2.938 8.86-8.2949 11.146-8.2949 11.146s7.835 0.33473 10.207-0.19727c0 0 0.67389-5.5502-1.9121-10.949z"/>
  </g>
</svg>
